<mxfile host="app.diagrams.net" agent="Mozilla/5.0 (Windows NT 10.0; Win64; x64) AppleWebKit/537.36 (KHTML, like Gecko) Chrome/131.0.0.0 Safari/537.36" version="25.0.3">
  <diagram name="Page-1" id="ekb2LiPQlawxA0WvKHZZ">
    <mxGraphModel dx="1400" dy="795" grid="1" gridSize="10" guides="1" tooltips="1" connect="1" arrows="1" fold="1" page="1" pageScale="1" pageWidth="850" pageHeight="1100" math="0" shadow="0">
      <root>
        <mxCell id="0" />
        <mxCell id="1" parent="0" />
        <mxCell id="Hx_QQZFlWXEFTFyYz1nC-1" value="Member" style="shape=umlActor;verticalLabelPosition=bottom;verticalAlign=top;html=1;outlineConnect=0;" vertex="1" parent="1">
          <mxGeometry x="70" y="240" width="30" height="60" as="geometry" />
        </mxCell>
        <mxCell id="Hx_QQZFlWXEFTFyYz1nC-4" value="Librarian" style="shape=umlActor;verticalLabelPosition=bottom;verticalAlign=top;html=1;outlineConnect=0;" vertex="1" parent="1">
          <mxGeometry x="660" y="240" width="30" height="60" as="geometry" />
        </mxCell>
        <mxCell id="Hx_QQZFlWXEFTFyYz1nC-7" value="System" style="shape=umlActor;verticalLabelPosition=bottom;verticalAlign=top;html=1;outlineConnect=0;" vertex="1" parent="1">
          <mxGeometry x="660" y="520" width="30" height="60" as="geometry" />
        </mxCell>
        <mxCell id="Hx_QQZFlWXEFTFyYz1nC-8" value="Login" style="ellipse;whiteSpace=wrap;html=1;" vertex="1" parent="1">
          <mxGeometry x="356.25" y="70" width="75" height="40" as="geometry" />
        </mxCell>
        <mxCell id="Hx_QQZFlWXEFTFyYz1nC-9" value="Registration" style="ellipse;whiteSpace=wrap;html=1;" vertex="1" parent="1">
          <mxGeometry x="348.75" y="140" width="90" height="40" as="geometry" />
        </mxCell>
        <mxCell id="Hx_QQZFlWXEFTFyYz1nC-10" value="Search Book" style="ellipse;whiteSpace=wrap;html=1;" vertex="1" parent="1">
          <mxGeometry x="347.5" y="190" width="90" height="40" as="geometry" />
        </mxCell>
        <mxCell id="Hx_QQZFlWXEFTFyYz1nC-11" value="Borrow Book" style="ellipse;whiteSpace=wrap;html=1;" vertex="1" parent="1">
          <mxGeometry x="290" y="250" width="90" height="40" as="geometry" />
        </mxCell>
        <mxCell id="Hx_QQZFlWXEFTFyYz1nC-12" value="Return Book" style="ellipse;whiteSpace=wrap;html=1;" vertex="1" parent="1">
          <mxGeometry x="356.25" y="320" width="92.5" height="40" as="geometry" />
        </mxCell>
        <mxCell id="Hx_QQZFlWXEFTFyYz1nC-13" value="Calculate fine" style="ellipse;whiteSpace=wrap;html=1;" vertex="1" parent="1">
          <mxGeometry x="530" y="340" width="100" height="40" as="geometry" />
        </mxCell>
        <mxCell id="Hx_QQZFlWXEFTFyYz1nC-14" value="Issue Book" style="ellipse;whiteSpace=wrap;html=1;" vertex="1" parent="1">
          <mxGeometry x="425" y="250" width="75" height="40" as="geometry" />
        </mxCell>
        <mxCell id="Hx_QQZFlWXEFTFyYz1nC-15" value="Check Account Status" style="ellipse;whiteSpace=wrap;html=1;" vertex="1" parent="1">
          <mxGeometry x="280" y="380" width="110" height="40" as="geometry" />
        </mxCell>
        <mxCell id="Hx_QQZFlWXEFTFyYz1nC-16" value="Pay Fine" style="ellipse;whiteSpace=wrap;html=1;" vertex="1" parent="1">
          <mxGeometry x="260" y="430" width="75" height="40" as="geometry" />
        </mxCell>
        <mxCell id="Hx_QQZFlWXEFTFyYz1nC-18" value="Update Catalogue" style="ellipse;whiteSpace=wrap;html=1;" vertex="1" parent="1">
          <mxGeometry x="380" y="470" width="110" height="50" as="geometry" />
        </mxCell>
        <mxCell id="Hx_QQZFlWXEFTFyYz1nC-19" value="Manage User Account" style="ellipse;whiteSpace=wrap;html=1;" vertex="1" parent="1">
          <mxGeometry x="385" y="550" width="110" height="50" as="geometry" />
        </mxCell>
        <mxCell id="Hx_QQZFlWXEFTFyYz1nC-20" value="Generate Reminders" style="ellipse;whiteSpace=wrap;html=1;" vertex="1" parent="1">
          <mxGeometry x="380" y="630" width="120" height="50" as="geometry" />
        </mxCell>
        <mxCell id="Hx_QQZFlWXEFTFyYz1nC-25" value="" style="endArrow=none;html=1;rounded=0;entryX=1;entryY=0.5;entryDx=0;entryDy=0;exitX=0.25;exitY=0.1;exitDx=0;exitDy=0;exitPerimeter=0;" edge="1" parent="1" source="Hx_QQZFlWXEFTFyYz1nC-4" target="Hx_QQZFlWXEFTFyYz1nC-8">
          <mxGeometry width="50" height="50" relative="1" as="geometry">
            <mxPoint x="670" y="250" as="sourcePoint" />
            <mxPoint x="410" y="330" as="targetPoint" />
          </mxGeometry>
        </mxCell>
        <mxCell id="Hx_QQZFlWXEFTFyYz1nC-26" value="" style="endArrow=none;html=1;rounded=0;entryX=0;entryY=0.5;entryDx=0;entryDy=0;exitX=0.75;exitY=0.1;exitDx=0;exitDy=0;exitPerimeter=0;" edge="1" parent="1" source="Hx_QQZFlWXEFTFyYz1nC-1" target="Hx_QQZFlWXEFTFyYz1nC-8">
          <mxGeometry width="50" height="50" relative="1" as="geometry">
            <mxPoint x="100" y="240" as="sourcePoint" />
            <mxPoint x="410" y="330" as="targetPoint" />
          </mxGeometry>
        </mxCell>
        <mxCell id="Hx_QQZFlWXEFTFyYz1nC-30" value="" style="endArrow=none;html=1;rounded=0;exitX=0.75;exitY=0.1;exitDx=0;exitDy=0;exitPerimeter=0;entryX=0;entryY=0.5;entryDx=0;entryDy=0;" edge="1" parent="1" source="Hx_QQZFlWXEFTFyYz1nC-1" target="Hx_QQZFlWXEFTFyYz1nC-10">
          <mxGeometry width="50" height="50" relative="1" as="geometry">
            <mxPoint x="360" y="270" as="sourcePoint" />
            <mxPoint x="410" y="220" as="targetPoint" />
          </mxGeometry>
        </mxCell>
        <mxCell id="Hx_QQZFlWXEFTFyYz1nC-33" value="" style="group" vertex="1" connectable="0" parent="1">
          <mxGeometry x="390" y="110" width="90" height="30" as="geometry" />
        </mxCell>
        <mxCell id="Hx_QQZFlWXEFTFyYz1nC-28" value="" style="html=1;labelBackgroundColor=#ffffff;startArrow=none;startFill=0;startSize=6;endArrow=classic;endFill=1;endSize=6;jettySize=auto;orthogonalLoop=1;strokeWidth=1;dashed=1;fontSize=14;rounded=0;exitX=0.5;exitY=1;exitDx=0;exitDy=0;entryX=0.5;entryY=0;entryDx=0;entryDy=0;" edge="1" parent="Hx_QQZFlWXEFTFyYz1nC-33" source="Hx_QQZFlWXEFTFyYz1nC-8" target="Hx_QQZFlWXEFTFyYz1nC-9">
          <mxGeometry width="60" height="60" relative="1" as="geometry">
            <mxPoint x="-40" y="270" as="sourcePoint" />
            <mxPoint x="20" y="210" as="targetPoint" />
          </mxGeometry>
        </mxCell>
        <mxCell id="Hx_QQZFlWXEFTFyYz1nC-29" value="&amp;lt;&amp;lt;include&amp;gt;&amp;gt;" style="text;html=1;align=center;verticalAlign=middle;resizable=0;points=[];autosize=1;strokeColor=none;fillColor=none;" vertex="1" parent="Hx_QQZFlWXEFTFyYz1nC-33">
          <mxGeometry width="90" height="30" as="geometry" />
        </mxCell>
        <mxCell id="Hx_QQZFlWXEFTFyYz1nC-34" value="" style="endArrow=none;html=1;rounded=0;exitX=0.25;exitY=0.1;exitDx=0;exitDy=0;exitPerimeter=0;entryX=1;entryY=0.5;entryDx=0;entryDy=0;" edge="1" parent="1" source="Hx_QQZFlWXEFTFyYz1nC-4" target="Hx_QQZFlWXEFTFyYz1nC-10">
          <mxGeometry width="50" height="50" relative="1" as="geometry">
            <mxPoint x="360" y="220" as="sourcePoint" />
            <mxPoint x="410" y="170" as="targetPoint" />
          </mxGeometry>
        </mxCell>
        <mxCell id="Hx_QQZFlWXEFTFyYz1nC-35" value="" style="endArrow=none;html=1;rounded=0;exitX=0.25;exitY=0.1;exitDx=0;exitDy=0;exitPerimeter=0;entryX=1;entryY=0.5;entryDx=0;entryDy=0;" edge="1" parent="1" source="Hx_QQZFlWXEFTFyYz1nC-4" target="Hx_QQZFlWXEFTFyYz1nC-14">
          <mxGeometry width="50" height="50" relative="1" as="geometry">
            <mxPoint x="658" y="246" as="sourcePoint" />
            <mxPoint x="448" y="220" as="targetPoint" />
          </mxGeometry>
        </mxCell>
        <mxCell id="Hx_QQZFlWXEFTFyYz1nC-36" value="" style="endArrow=none;html=1;rounded=0;exitX=0.041;exitY=0.328;exitDx=0;exitDy=0;exitPerimeter=0;entryX=0.75;entryY=0.1;entryDx=0;entryDy=0;entryPerimeter=0;" edge="1" parent="1" source="Hx_QQZFlWXEFTFyYz1nC-11" target="Hx_QQZFlWXEFTFyYz1nC-1">
          <mxGeometry width="50" height="50" relative="1" as="geometry">
            <mxPoint x="668" y="256" as="sourcePoint" />
            <mxPoint x="458" y="230" as="targetPoint" />
          </mxGeometry>
        </mxCell>
        <mxCell id="Hx_QQZFlWXEFTFyYz1nC-37" value="" style="endArrow=none;html=1;rounded=0;exitX=0.455;exitY=0;exitDx=0;exitDy=0;exitPerimeter=0;entryX=0.75;entryY=0.1;entryDx=0;entryDy=0;entryPerimeter=0;" edge="1" parent="1" source="Hx_QQZFlWXEFTFyYz1nC-15" target="Hx_QQZFlWXEFTFyYz1nC-1">
          <mxGeometry width="50" height="50" relative="1" as="geometry">
            <mxPoint x="678" y="266" as="sourcePoint" />
            <mxPoint x="468" y="240" as="targetPoint" />
          </mxGeometry>
        </mxCell>
        <mxCell id="Hx_QQZFlWXEFTFyYz1nC-38" value="" style="endArrow=none;html=1;rounded=0;exitX=0;exitY=0.5;exitDx=0;exitDy=0;entryX=0.75;entryY=0.1;entryDx=0;entryDy=0;entryPerimeter=0;" edge="1" parent="1" source="Hx_QQZFlWXEFTFyYz1nC-16" target="Hx_QQZFlWXEFTFyYz1nC-1">
          <mxGeometry width="50" height="50" relative="1" as="geometry">
            <mxPoint x="250" y="330" as="sourcePoint" />
            <mxPoint x="133" y="246" as="targetPoint" />
          </mxGeometry>
        </mxCell>
        <mxCell id="Hx_QQZFlWXEFTFyYz1nC-41" value="" style="endArrow=none;html=1;rounded=0;exitX=0;exitY=0.5;exitDx=0;exitDy=0;entryX=0.75;entryY=0.1;entryDx=0;entryDy=0;entryPerimeter=0;" edge="1" parent="1" source="Hx_QQZFlWXEFTFyYz1nC-12" target="Hx_QQZFlWXEFTFyYz1nC-1">
          <mxGeometry width="50" height="50" relative="1" as="geometry">
            <mxPoint x="340" y="390" as="sourcePoint" />
            <mxPoint x="100" y="250" as="targetPoint" />
          </mxGeometry>
        </mxCell>
        <mxCell id="Hx_QQZFlWXEFTFyYz1nC-42" value="" style="endArrow=none;html=1;rounded=0;exitX=1;exitY=0.5;exitDx=0;exitDy=0;entryX=0.25;entryY=0.1;entryDx=0;entryDy=0;entryPerimeter=0;" edge="1" parent="1" source="Hx_QQZFlWXEFTFyYz1nC-18" target="Hx_QQZFlWXEFTFyYz1nC-7">
          <mxGeometry width="50" height="50" relative="1" as="geometry">
            <mxPoint x="490" y="520" as="sourcePoint" />
            <mxPoint x="708.75" y="426" as="targetPoint" />
          </mxGeometry>
        </mxCell>
        <mxCell id="Hx_QQZFlWXEFTFyYz1nC-43" value="" style="endArrow=none;html=1;rounded=0;exitX=1;exitY=0.5;exitDx=0;exitDy=0;entryX=0.25;entryY=0.1;entryDx=0;entryDy=0;entryPerimeter=0;" edge="1" parent="1" source="Hx_QQZFlWXEFTFyYz1nC-19" target="Hx_QQZFlWXEFTFyYz1nC-7">
          <mxGeometry width="50" height="50" relative="1" as="geometry">
            <mxPoint x="459" y="350" as="sourcePoint" />
            <mxPoint x="670" y="530" as="targetPoint" />
          </mxGeometry>
        </mxCell>
        <mxCell id="Hx_QQZFlWXEFTFyYz1nC-44" value="" style="endArrow=none;html=1;rounded=0;exitX=1.012;exitY=0.394;exitDx=0;exitDy=0;exitPerimeter=0;entryX=0.25;entryY=0.1;entryDx=0;entryDy=0;entryPerimeter=0;" edge="1" parent="1" source="Hx_QQZFlWXEFTFyYz1nC-20" target="Hx_QQZFlWXEFTFyYz1nC-7">
          <mxGeometry width="50" height="50" relative="1" as="geometry">
            <mxPoint x="500" y="585" as="sourcePoint" />
            <mxPoint x="680" y="540" as="targetPoint" />
          </mxGeometry>
        </mxCell>
        <mxCell id="Hx_QQZFlWXEFTFyYz1nC-45" value="" style="endArrow=none;html=1;rounded=0;entryX=0.5;entryY=0;entryDx=0;entryDy=0;exitX=0.25;exitY=0.1;exitDx=0;exitDy=0;exitPerimeter=0;" edge="1" parent="1" source="Hx_QQZFlWXEFTFyYz1nC-4" target="Hx_QQZFlWXEFTFyYz1nC-13">
          <mxGeometry width="50" height="50" relative="1" as="geometry">
            <mxPoint x="670" y="250" as="sourcePoint" />
            <mxPoint x="510" y="280" as="targetPoint" />
          </mxGeometry>
        </mxCell>
        <mxCell id="Hx_QQZFlWXEFTFyYz1nC-47" value="&lt;font style=&quot;font-size: 19px;&quot;&gt;&lt;b&gt;Figure: Use Case Diagram&lt;/b&gt;&lt;/font&gt;" style="text;html=1;align=center;verticalAlign=middle;whiteSpace=wrap;rounded=0;" vertex="1" parent="1">
          <mxGeometry x="280" y="740" width="270" height="30" as="geometry" />
        </mxCell>
      </root>
    </mxGraphModel>
  </diagram>
</mxfile>
